<?xml version="1.0" encoding="UTF-8" standalone="no"?>
<svg
   width="21.021999"
   height="33.163551"
   viewBox="0 0 21.021999 33.163551"
   fill="none"
   version="1.1"
   id="svg5"
   xmlns="http://www.w3.org/2000/svg"
   xmlns:svg="http://www.w3.org/2000/svg">
  <g
     clip-path="url(#clip0)"
     id="g5"
     transform="translate(0,-0.765747)">
    <path
       d="m 19.841,11.3804 c -0.1653,0 -0.3189,0.0354 -0.4724,0.0943 L 10.015,1.57864 h 1.3936 l 6.3066,6.66805 c -0.0945,0.16493 -0.1417,0.35343 -0.1417,0.55371 0,0.64795 0.5196,1.16632 1.1692,1.16632 0.6495,0 1.1692,-0.51837 1.1692,-1.16632 0,-0.64796 -0.5197,-1.16632 -1.1692,-1.16632 -0.1417,0 -0.2717,0.02356 -0.3898,0.07068 L 12.566,1.57864 h 1.3936 l 3.047,3.22799 c -0.0945,0.16494 -0.1417,0.35343 -0.1417,0.56549 0,0.64796 0.5196,1.16632 1.1692,1.16632 0.6495,0 1.1692,-0.51836 1.1692,-1.16632 0,-0.64795 -0.5197,-1.16632 -1.1692,-1.16632 -0.1418,0 -0.2717,0.02356 -0.3898,0.07069 -1.1101,-1.16632 -2.2203,-2.34442 -3.3186,-3.510743 -1.8424,0 -3.6848,0 -5.51534,0 C 7.15694,2.50934 5.51533,4.24114 3.86191,5.98473 c 0,1.22523 0,2.45045 0,3.67568 L 2.24392,7.95216 C 2.30298,7.81079 2.33841,7.64586 2.33841,7.48092 2.33841,6.83297 1.81876,6.3146 1.1692,6.3146 0.519646,6.3146 0,6.84475 0,7.48092 c 0,0.64796 0.519646,1.16632 1.1692,1.16632 0.17715,0 0.3425,-0.03534 0.48422,-0.10603 L 16.5578,24.3042 v 4.9127 H 15.672 V 24.8933 C 11.5739,20.5461 7.464,16.1871 3.34227,11.8399 3.43675,11.6632 3.4958,11.4629 3.4958,11.2508 c 0,-0.6479 -0.51965,-1.1663 -1.1692,-1.1663 -0.64956,0 -1.16921,0.5184 -1.16921,1.1663 0,0.648 0.51965,1.1664 1.16921,1.1664 0.12991,0 0.24801,-0.0236 0.36611,-0.0589 l 12.15259,12.853 v 1.4138 L 4.05087,15.2093 c 0.08267,-0.1532 0.11811,-0.3299 0.11811,-0.5184 0,-0.648 -0.51965,-1.1663 -1.16921,-1.1663 -0.64955,0 -1.1692,0.5183 -1.1692,1.1663 0,0.648 0.51965,1.1663 1.1692,1.1663 0.15353,0 0.30707,-0.0353 0.43698,-0.0824 L 14.8453,27.8385 v 1.3784 H 8.397 v -1.8261 c 0.43698,-0.1649 0.74404,-0.589 0.74404,-1.0838 0,-0.648 -0.51965,-1.1663 -1.1692,-1.1663 -0.64956,0 -1.16921,0.5183 -1.16921,1.1663 0,0.4948 0.31888,0.9189 0.75585,1.0956 v 1.8143 H 6.25937 v -3.6403 c 0.43697,-0.165 0.75585,-0.5891 0.75585,-1.0839 0,-0.648 -0.51965,-1.1663 -1.16921,-1.1663 -0.64955,0 -1.1692,0.5183 -1.1692,1.1663 0,0.4948 0.31887,0.9189 0.75585,1.0839 v 3.6403 H 4.23984 v -5.5253 c 0.43697,-0.1649 0.75584,-0.5891 0.75584,-1.0839 0,-0.6479 -0.51964,-1.1663 -1.1692,-1.1663 -0.64956,0 -1.1692,0.5184 -1.1692,1.1663 0,0.4948 0.31887,0.919 0.75585,1.0839 v 6.0437 c 2.31478,1.4019 4.64138,2.8038 6.95617,4.194 1.6298,0 3.2596,0 4.8894,0 1.2873,-1.3666 2.5746,-2.7214 3.8737,-4.088 0,-2.5094 0,-5.0187 0,-7.5281 -3.2478,-3.44 -6.4956,-6.8683 -9.74335,-10.3084 V 6.49132 L 11.4558,4.30005 18.7899,12.052 c -0.0708,0.1531 -0.1063,0.318 -0.1063,0.483 0,0.6479 0.5197,1.1663 1.1692,1.1663 0.6496,0 1.1692,-0.5184 1.1692,-1.1663 -0.0118,-0.6362 -0.5314,-1.1546 -1.181,-1.1546 z M 18.7427,8.12888 c 0.3779,0 0.6732,0.3063 0.6732,0.67152 0,0.37699 -0.3071,0.67151 -0.6732,0.67151 -0.378,0 -0.6732,-0.3063 -0.6732,-0.67151 -0.0118,-0.377 0.2952,-0.67152 0.6732,-0.67152 z M 18.0223,4.68882 c 0.3779,0 0.6731,0.30631 0.6731,0.67152 0,0.37699 -0.307,0.67152 -0.6731,0.67152 -0.378,0 -0.6732,-0.30631 -0.6732,-0.67152 0,-0.36521 0.2952,-0.67152 0.6732,-0.67152 z M 1.1692,8.15244 c -0.377921,0 -0.673175,-0.30631 -0.673175,-0.67152 0,-0.37699 0.307064,-0.67151 0.673175,-0.67151 0.37793,0 0.67318,0.3063 0.67318,0.67151 0,0.37699 -0.29525,0.67152 -0.67318,0.67152 z m 1.16921,3.78166 c -0.37793,0 -0.67318,-0.3063 -0.67318,-0.6715 0,-0.377 0.30706,-0.6715 0.67318,-0.6715 0.37792,0 0.67317,0.3063 0.67317,0.6715 0,0.3652 -0.30706,0.6715 -0.67317,0.6715 z m 0.67317,3.4401 c -0.37792,0 -0.67317,-0.3063 -0.67317,-0.6715 0,-0.377 0.30706,-0.6715 0.67317,-0.6715 0.37793,0 0.67318,0.3063 0.67318,0.6715 0,0.3652 -0.30706,0.6715 -0.67318,0.6715 z M 3.1533,22.596 c 0,-0.377 0.30707,-0.6716 0.67318,-0.6716 0.37793,0 0.67318,0.3063 0.67318,0.6716 0,0.377 -0.30706,0.6715 -0.67318,0.6715 -0.37792,0 -0.67318,-0.2945 -0.67318,-0.6715 z M 6.12946,6.2557 v 5.8198 L 4.67681,10.5204 V 6.30282 L 9.01113,1.72001 9.71974,2.46221 C 8.5151,3.72278 7.32228,4.98335 6.12946,6.2557 Z M 7.31047,26.307 c 0,-0.377 0.30706,-0.6715 0.67318,-0.6715 0.37792,0 0.67318,0.3063 0.67318,0.6715 0,0.377 -0.30707,0.6715 -0.67318,0.6715 -0.37793,0 -0.67318,-0.2945 -0.67318,-0.6715 z M 5.18465,24.4927 c 0,-0.377 0.30706,-0.6715 0.67317,-0.6715 0.37793,0 0.67318,0.3063 0.67318,0.6715 0,0.377 -0.30706,0.6715 -0.67318,0.6715 -0.36611,0 -0.67317,-0.3063 -0.67317,-0.6715 z m 9.70795,8.6119 H 10.5937 L 8.7395,31.9854 h 7.2042 z M 16.735,31.149 H 7.36952 L 5.53895,30.0416 H 17.7861 Z M 8.55053,6.16145 c 0,2.06168 0,4.11155 0,6.17325 3.24777,3.4401 6.49557,6.8683 9.74337,10.3084 v 6.5738 H 17.3963 V 23.9743 C 13.9241,20.2987 10.4402,16.623 6.96798,12.9473 V 6.58557 L 10.2866,3.07483 10.8889,3.711 Z M 19.841,13.2183 c -0.3779,0 -0.6732,-0.3063 -0.6732,-0.6715 0,-0.377 0.3071,-0.6716 0.6732,-0.6716 0.3779,0 0.6732,0.3063 0.6732,0.6716 0.0118,0.3652 -0.2953,0.6715 -0.6732,0.6715 z"
       fill="#fefcfb"
       id="path1"
       style="fill:#f5f5f5;fill-opacity:1" />
  </g>
  <defs
     id="defs5">
    <clipPath
       id="clip0">
      <rect
         width="52"
         height="34"
         fill="#ffffff"
         id="rect5"
         x="0"
         y="0" />
    </clipPath>
  </defs>
</svg>
